<?xml version="1.0" standalone="no"?>
<!DOCTYPE svg PUBLIC "-//W3C//DTD SVG 20010904//EN"
 "http://www.w3.org/TR/2001/REC-SVG-20010904/DTD/svg10.dtd">
<svg version="1.0" xmlns="http://www.w3.org/2000/svg"
 width="32.000000pt" height="33.000000pt" viewBox="0 0 32.000000 33.000000"
 preserveAspectRatio="xMidYMid meet">
<metadata>
Created by potrace 1.16, written by Peter Selinger 2001-2019
</metadata>
<g transform="translate(0.000000,33.000000) scale(0.100000,-0.100000)"
fill="#000000" stroke="none">
<path d="M109 190 l-24 -20 29 14 c21 11 35 12 48 5 10 -5 18 -7 18 -3 0 3 6
3 13 -2 7 -5 4 -1 -6 9 -25 22 -49 22 -78 -3z"/>
<path d="M90 110 c0 -7 9 -14 20 -17 11 -3 20 -9 20 -14 0 -14 38 -11 43 4 4
9 8 8 16 -3 5 -8 13 -11 17 -7 12 12 -12 29 -43 32 -15 1 -38 5 -51 9 -14 5
-22 3 -22 -4z"/>
<path d="M85 80 c-3 -5 1 -10 10 -10 9 0 13 5 10 10 -3 6 -8 10 -10 10 -2 0
-7 -4 -10 -10z"/>
</g>
</svg>
