<?xml version="1.0" standalone="no"?>
<!DOCTYPE svg PUBLIC "-//W3C//DTD SVG 20010904//EN"
 "http://www.w3.org/TR/2001/REC-SVG-20010904/DTD/svg10.dtd">
<svg version="1.0" xmlns="http://www.w3.org/2000/svg"
 width="37.000000pt" height="28.000000pt" viewBox="0 0 37.000000 28.000000"
 preserveAspectRatio="xMidYMid meet">
<metadata>
Created by potrace 1.16, written by Peter Selinger 2001-2019
</metadata>
<g transform="translate(0.000000,28.000000) scale(0.100000,-0.100000)"
fill="#000000" stroke="none">
<path d="M206 156 c6 -16 4 -18 -10 -13 -14 6 -17 3 -12 -9 3 -8 6 -19 6 -22
0 -4 7 4 16 17 13 17 14 25 5 34 -9 9 -10 7 -5 -7z"/>
<path d="M100 109 c-6 -10 -10 -22 -10 -27 0 -11 118 -14 124 -3 3 4 -8 5 -25
3 -19 -3 -29 0 -29 9 0 10 -3 10 -12 1 -14 -14 -48 -16 -48 -3 0 15 20 24 20
9 1 -8 4 -7 10 4 7 10 18 14 32 11 13 -3 20 -2 16 2 -15 16 -69 12 -78 -6z"/>
</g>
</svg>
