<svg width="400" height="143" viewBox="0 0 400 143" fill="none" xmlns="http://www.w3.org/2000/svg">
<g clip-path="url(#clip0)">
<rect width="400" height="143" fill="#F54F2B"/>
<path d="M51.739 92.8096C35.0903 68.5368 32 66.0456 32 57.125C32 44.9057 41.8497 35 54 35C66.1503 35 76 44.9057 76 57.125C76 66.0456 72.9097 68.5368 56.261 92.8096C55.1684 94.3969 52.8315 94.3967 51.739 92.8096ZM54 66.3437C59.0626 66.3437 63.1667 62.2164 63.1667 57.125C63.1667 52.0336 59.0626 47.9062 54 47.9062C48.9374 47.9062 44.8333 52.0336 44.8333 57.125C44.8333 62.2164 48.9374 66.3437 54 66.3437Z" fill="white"/>
<path d="M94.504 63.832C94.696 63.832 95.056 64.024 95.584 64.408C96.112 64.792 96.664 64.984 97.24 64.984H97.312C98.944 64.984 100.24 64.336 101.2 63.04C102.16 61.744 102.688 60.448 102.784 59.152L103 57.208C103 55.384 102.712 53.824 102.136 52.528C101.608 51.184 100.984 50.2 100.264 49.576C99.544 48.904 98.704 48.4 97.744 48.064C96.544 47.584 95.272 47.344 93.928 47.344C92.632 47.344 91.576 47.488 90.76 47.776C89.944 48.016 89.488 48.256 89.392 48.496L89.32 48.928C88.888 55.408 88.672 61.216 88.672 66.352C88.672 71.44 88.744 75.832 88.888 79.528C89.08 83.224 89.248 86.08 89.392 88.096C89.584 90.064 89.68 91.144 89.68 91.336C89.68 92.536 88.624 93.496 86.512 94.216C84.4 94.936 82.312 95.296 80.248 95.296C79.288 95.296 78.808 95.056 78.808 94.576C78.808 94.432 78.88 94.096 79.024 93.568C79.936 91.456 80.392 81.64 80.392 64.12C80.392 53.8 79.696 47.896 78.304 46.408C78.016 46.12 77.872 45.832 77.872 45.544C77.872 45.208 78.208 44.848 78.88 44.464C79.6 44.08 81.568 43.648 84.784 43.168C88 42.64 91.408 42.376 95.008 42.376C100.672 42.376 104.92 43.912 107.752 46.984C110.632 50.056 112.072 53.728 112.072 58C112.072 62.224 110.896 65.896 108.544 69.016C106.24 72.136 103.216 73.696 99.472 73.696C98.272 73.696 97.072 73.48 95.872 73.048C93.472 72.184 92.272 70.384 92.272 67.648C92.272 67.072 92.464 66.304 92.848 65.344C93.232 64.336 93.784 63.832 94.504 63.832ZM132.528 52.744C128.736 57.496 126 62.248 124.32 67H124.392C131.064 67 134.88 67.024 135.84 67.072C136.848 67.072 137.4 67.024 137.496 66.928C137.592 66.832 137.664 66.712 137.712 66.568C136.896 60.664 136.248 56.656 135.768 54.544C135.288 52.384 134.808 51.304 134.328 51.304C133.848 51.304 133.248 51.784 132.528 52.744ZM126.12 86.656L127.704 86.368C128.184 86.368 128.424 86.632 128.424 87.16C128.424 88.84 128.088 90.256 127.416 91.408C126.744 92.56 125.904 93.376 124.896 93.856C123.264 94.672 121.872 95.08 120.72 95.08C118.512 95.08 116.856 94.264 115.752 92.632C114.648 90.952 114.096 88.456 114.096 85.144C114.096 81.784 115.008 77.44 116.832 72.112H112.656C112.128 72.112 111.864 71.848 111.864 71.32C111.864 70.792 112.272 69.952 113.088 68.8C113.904 67.6 114.768 67 115.68 67H118.92C122.328 59.416 126.336 52.864 130.944 47.344C132.144 45.904 133.608 44.56 135.336 43.312C137.112 42.064 138.48 41.44 139.44 41.44C140.4 41.44 141.12 41.872 141.6 42.736C142.848 44.752 144.312 52.12 145.992 64.84C146.568 70.312 147.552 75.976 148.944 81.832C150.384 87.64 151.704 91.024 152.904 91.984C153.192 92.176 153.336 92.416 153.336 92.704C153.336 93.424 152.304 94.096 150.24 94.72C148.224 95.344 146.664 95.656 145.56 95.656C144.504 95.656 143.688 95.512 143.112 95.224C142.536 94.984 142.176 94.72 142.032 94.432C141.168 92.56 140.304 88.096 139.44 81.04L139.008 77.656C138.816 75.4 138.624 73.696 138.432 72.544L137.928 72.184L122.88 72.112C122.304 74.56 122.016 76.696 122.016 78.52C122.016 80.344 122.064 81.688 122.16 82.552C122.304 83.368 122.712 84.256 123.384 85.216C124.056 86.176 124.968 86.656 126.12 86.656ZM159.292 42.736L169.66 43.312C174.268 43.312 177.58 42.76 179.596 41.656C179.884 41.464 180.124 41.368 180.316 41.368C180.556 41.368 180.676 41.704 180.676 42.376C180.676 43.048 180.268 44.152 179.452 45.688C178.252 48.04 176.524 49.216 174.268 49.216L170.308 49.144C169.924 49.144 169.684 49.36 169.588 49.792C169.252 56.848 169.084 64.48 169.084 72.688C169.084 80.848 169.42 86.992 170.092 91.12V91.48C170.092 92.68 168.94 93.64 166.636 94.36C164.38 95.08 162.244 95.44 160.228 95.44C159.268 95.44 158.788 95.176 158.788 94.648C158.788 94.504 158.86 94.168 159.004 93.64C159.532 92.584 159.988 87.472 160.372 78.304C160.804 69.136 161.02 62.224 161.02 57.568L160.876 49.72C160.876 49.432 160.732 49.264 160.444 49.216C159.436 49.024 158.284 48.928 156.988 48.928C154.396 48.928 152.476 49.456 151.228 50.512C150.892 50.752 150.58 50.872 150.292 50.872C149.956 50.872 149.788 50.68 149.788 50.296C149.788 49.72 150.1 48.928 150.724 47.92C151.3 46.912 151.924 46.048 152.596 45.328C154.228 43.6 156.46 42.736 159.292 42.736ZM197.708 52.744C193.916 57.496 191.18 62.248 189.5 67H189.572C196.244 67 200.06 67.024 201.02 67.072C202.028 67.072 202.58 67.024 202.676 66.928C202.772 66.832 202.844 66.712 202.892 66.568C202.076 60.664 201.428 56.656 200.948 54.544C200.468 52.384 199.988 51.304 199.508 51.304C199.028 51.304 198.428 51.784 197.708 52.744ZM191.3 86.656L192.884 86.368C193.364 86.368 193.604 86.632 193.604 87.16C193.604 88.84 193.268 90.256 192.596 91.408C191.924 92.56 191.084 93.376 190.076 93.856C188.444 94.672 187.052 95.08 185.9 95.08C183.692 95.08 182.036 94.264 180.932 92.632C179.828 90.952 179.276 88.456 179.276 85.144C179.276 81.784 180.188 77.44 182.012 72.112H177.836C177.308 72.112 177.044 71.848 177.044 71.32C177.044 70.792 177.452 69.952 178.268 68.8C179.084 67.6 179.948 67 180.86 67H184.1C187.508 59.416 191.516 52.864 196.124 47.344C197.324 45.904 198.788 44.56 200.516 43.312C202.292 42.064 203.66 41.44 204.62 41.44C205.58 41.44 206.3 41.872 206.78 42.736C208.028 44.752 209.492 52.12 211.172 64.84C211.748 70.312 212.732 75.976 214.124 81.832C215.564 87.64 216.884 91.024 218.084 91.984C218.372 92.176 218.516 92.416 218.516 92.704C218.516 93.424 217.484 94.096 215.42 94.72C213.404 95.344 211.844 95.656 210.74 95.656C209.684 95.656 208.868 95.512 208.292 95.224C207.716 94.984 207.356 94.72 207.212 94.432C206.348 92.56 205.484 88.096 204.62 81.04L204.188 77.656C203.996 75.4 203.804 73.696 203.612 72.544L203.108 72.184L188.06 72.112C187.484 74.56 187.196 76.696 187.196 78.52C187.196 80.344 187.244 81.688 187.34 82.552C187.484 83.368 187.892 84.256 188.564 85.216C189.236 86.176 190.148 86.656 191.3 86.656ZM243.158 54.112L243.446 51.88C243.446 49.672 242.582 48.256 240.854 47.632C239.51 47.2 238.478 46.984 237.758 46.984H237.686C236.246 46.984 234.998 47.224 233.942 47.704C232.886 48.136 232.118 48.688 231.638 49.36C230.63 50.752 230.054 52.216 229.91 53.752C229.91 55.576 230.726 57.16 232.358 58.504C233.99 59.8 235.958 60.952 238.262 61.96C240.614 62.92 242.942 63.976 245.246 65.128C247.598 66.28 249.59 67.936 251.222 70.096C252.854 72.256 253.67 74.848 253.67 77.872C253.67 83.776 251.798 88.192 248.054 91.12C244.358 94.048 240.134 95.512 235.382 95.512C230.678 95.512 226.766 94.456 223.646 92.344C220.574 90.184 219.038 87.304 219.038 83.704V83.632C219.038 81.856 219.302 80.32 219.83 79.024C220.406 77.68 221.078 76.696 221.846 76.072C223.43 74.776 224.87 74.08 226.166 73.984L227.03 73.912C228.374 73.912 229.598 74.248 230.702 74.92C231.806 75.544 232.358 76.432 232.358 77.584C232.358 78.16 232.046 78.64 231.422 79.024C230.798 79.408 230.246 79.984 229.766 80.752C229.334 81.52 229.094 82.168 229.046 82.696L228.902 83.488C228.902 86.416 230.246 88.36 232.934 89.32C233.894 89.656 234.662 89.824 235.238 89.824C237.878 89.824 239.99 89.032 241.574 87.448C243.206 85.864 244.022 83.848 244.022 81.4C244.022 78.472 242.774 76.096 240.278 74.272C238.406 72.928 236.366 71.8 234.158 70.888C231.998 69.976 230.534 69.328 229.766 68.944C228.998 68.56 228.182 68.104 227.318 67.576C226.454 67.048 225.494 66.304 224.438 65.344C222.134 63.328 220.982 60.616 220.982 57.208C220.982 53.752 221.918 50.848 223.79 48.496C227.15 44.224 232.19 42.088 238.91 42.088C242.462 42.088 245.462 42.784 247.91 44.176C250.358 45.52 251.582 47.392 251.582 49.792C251.582 51.52 251.078 52.96 250.07 54.112C249.11 55.264 247.862 55.84 246.326 55.84C245.606 55.84 244.886 55.696 244.166 55.408C243.494 55.12 243.158 54.688 243.158 54.112ZM269.061 62.104V63.112H281.805V62.968C281.853 61.816 281.877 60.376 281.877 58.648C281.877 56.872 281.853 55.336 281.805 54.04C281.757 52.696 281.709 51.568 281.661 50.656C281.613 49.744 281.541 48.952 281.445 48.28C281.397 47.608 281.349 47.104 281.301 46.768C281.253 46.384 281.229 46.048 281.229 45.76C281.229 45.472 281.493 45.136 282.021 44.752C284.325 43.216 286.893 42.448 289.725 42.448C291.501 42.448 292.389 42.76 292.389 43.384C292.389 43.432 292.341 43.696 292.245 44.176C291.333 48.736 290.757 55.048 290.517 63.112C290.373 71.176 290.301 75.496 290.301 76.072C290.301 83.512 290.733 88.672 291.597 91.552C291.741 91.936 291.813 92.272 291.813 92.56C291.813 92.8 291.621 93.088 291.237 93.424C289.461 94.576 287.157 95.152 284.325 95.152C282.501 95.152 281.469 94.528 281.229 93.28C281.085 92.608 281.013 91.576 281.013 90.184C281.013 88.744 281.085 86.56 281.229 83.632C281.421 80.704 281.565 75.592 281.661 68.296H269.061C269.061 79.24 269.397 86.92 270.069 91.336C270.069 92.488 268.965 93.424 266.757 94.144C264.549 94.912 262.725 95.296 261.285 95.296C259.845 95.296 259.125 95.08 259.125 94.648C259.125 94.36 259.197 94 259.341 93.568C260.253 91.552 260.709 83.44 260.709 69.232V68.296H256.461C256.077 68.296 255.885 68.152 255.885 67.864C255.885 67.768 255.981 67.408 256.173 66.784C256.365 66.112 256.797 65.344 257.469 64.48C258.189 63.616 258.981 63.184 259.845 63.184H260.637C260.637 53.728 260.085 48.28 258.981 46.84L258.693 46.408C258.405 46.168 258.261 45.88 258.261 45.544C258.261 45.16 258.525 44.848 259.053 44.608C259.773 44.176 261.045 43.744 262.869 43.312C264.741 42.88 266.421 42.664 267.909 42.664C269.397 42.664 270.141 43 270.141 43.672V43.888C269.565 48.88 269.205 54.952 269.061 62.104ZM297.992 81.472L298.496 61.24C298.496 58.12 298.424 55.552 298.28 53.536C298.04 49.936 297.632 47.68 297.056 46.768L296.768 46.336C296.528 46.144 296.408 45.904 296.408 45.616C296.408 44.704 297.608 43.984 300.008 43.456C302.408 42.88 304.424 42.592 306.056 42.592C307.688 42.592 308.504 43.048 308.504 43.96L308.432 44.752C307.76 49.504 307.352 55.144 307.208 61.672C307.064 68.152 306.992 72.4 306.992 74.416C306.992 76.432 307.064 78.112 307.208 79.456C307.352 80.8 307.424 81.592 307.424 81.832C307.472 82.024 307.592 82.432 307.784 83.056C308.024 83.632 308.312 84.16 308.648 84.64C309.512 85.792 310.736 86.368 312.32 86.368C313.904 86.368 315.224 86.008 316.28 85.288C317.384 84.568 318.2 83.68 318.728 82.624C319.832 80.368 320.504 78.424 320.744 76.792L320.888 75.712C321.128 72.304 321.248 68.272 321.248 63.616C321.248 58.96 321.224 55.912 321.176 54.472C321.128 53.032 321.056 51.856 320.96 50.944C320.864 49.984 320.768 49.144 320.672 48.424C320.624 47.704 320.576 47.152 320.528 46.768C320.48 46.336 320.456 46.096 320.456 46.048C320.456 45.52 320.72 45.088 321.248 44.752C322.064 44.128 323.312 43.6 324.992 43.168C326.72 42.736 328.256 42.52 329.6 42.52C330.944 42.52 331.616 42.832 331.616 43.456C331.616 43.552 331.496 44.344 331.256 45.832C330.2 52.36 329.672 61.432 329.672 73.048C329.672 81.64 330.248 87.76 331.4 91.408C331.592 91.984 331.688 92.392 331.688 92.632C331.688 92.824 331.496 93.088 331.112 93.424C329.672 94.528 327.752 95.08 325.352 95.08C323 95.08 321.728 94.48 321.536 93.28C321.296 92.656 321.152 91.408 321.104 89.536L321.032 88.672C321.032 88.24 320.936 88.024 320.744 88.024L319.952 88.528C319.04 90.064 317.984 91.36 316.784 92.416C315.584 93.424 314.432 94.12 313.328 94.504C311.744 95.08 310.184 95.368 308.648 95.368C307.16 95.368 305.648 94.96 304.112 94.144C302.624 93.376 301.496 92.464 300.728 91.408C300.008 90.352 299.408 89.104 298.928 87.664C298.304 85.6 297.992 83.536 297.992 81.472ZM355.801 93.928L351.697 93.856C351.121 93.856 350.545 93.856 349.969 93.856L336.865 94.504C336.145 94.504 335.785 94.264 335.785 93.784C335.785 93.64 335.857 93.304 336.001 92.776C336.481 91.672 336.817 88.168 337.009 82.264C337.249 76.36 337.369 70.984 337.369 66.136C337.369 61.24 337.273 57.28 337.081 54.256C336.793 49.696 336.313 46.96 335.641 46.048C335.113 45.376 334.849 44.944 334.849 44.752C334.849 43.984 336.145 43.312 338.737 42.736C341.329 42.16 343.177 41.872 344.281 41.872C345.433 41.872 346.153 41.944 346.441 42.088C346.729 42.184 346.873 42.424 346.873 42.808C346.873 43.192 346.777 44.416 346.585 46.48C346.105 52.576 345.865 59.68 345.865 67.792C345.865 75.856 346.057 82.312 346.441 87.16C346.441 87.688 346.897 88.144 347.809 88.528C348.721 88.912 349.849 89.104 351.193 89.104C355.897 89.104 358.249 85.48 358.249 78.232C358.249 76.216 358.129 74.968 357.889 74.488C357.697 74.008 357.601 73.696 357.601 73.552C357.601 73.072 357.937 72.832 358.609 72.832C359.137 72.832 359.833 73.096 360.697 73.624C361.609 74.152 362.353 74.824 362.929 75.64C363.505 76.408 364.033 77.656 364.513 79.384C364.993 81.064 365.233 83.056 365.233 85.36C365.233 91.072 364.537 93.928 363.145 93.928C360.697 93.928 358.249 93.928 355.801 93.928ZM399.166 85.072C399.166 88.432 398.086 90.928 395.926 92.56C393.814 94.192 390.838 95.008 386.998 95.008C380.854 95.008 376.318 92.968 373.39 88.888C370.51 84.808 369.07 79.48 369.07 72.904C369.07 71.848 369.118 70.312 369.214 68.296H365.182C364.798 68.296 364.606 68.152 364.606 67.864C364.606 67.048 365.014 66.064 365.83 64.912C366.646 63.76 367.534 63.184 368.494 63.184H369.862C370.486 59.728 371.494 56.68 372.886 54.04C374.326 51.4 375.814 49.36 377.35 47.92C378.934 46.48 380.662 45.328 382.534 44.464C385.51 43.024 388.63 42.304 391.894 42.304C395.158 42.304 397.198 42.832 398.014 43.888C398.398 44.416 398.59 45.4 398.59 46.84C398.59 48.232 398.422 48.928 398.086 48.928C398.038 48.928 397.822 48.832 397.438 48.64C396.19 48.064 394.63 47.776 392.758 47.776C388.678 47.776 385.486 49.216 383.182 52.096C380.926 54.976 379.414 58.672 378.646 63.184C382.294 63.136 387.238 63.112 393.478 63.112C393.958 63.112 394.198 63.28 394.198 63.616C394.198 64.384 393.814 65.368 393.046 66.568C392.278 67.72 391.414 68.296 390.454 68.296H378.07C378.022 68.872 377.998 70.144 377.998 72.112C377.998 74.032 378.334 76.072 379.006 78.232C379.726 80.344 381.022 82.144 382.894 83.632C384.814 85.12 387.286 85.864 390.31 85.864C393.334 85.864 395.878 85.192 397.942 83.848C398.182 83.656 398.398 83.56 398.59 83.56C398.974 83.56 399.166 84.064 399.166 85.072Z" fill="white"/>
</g>
<defs>
<clipPath id="clip0">
<rect width="400" height="143" fill="white"/>
</clipPath>
</defs>
</svg>
