<?xml version="1.0" standalone="no"?>
<!DOCTYPE svg PUBLIC "-//W3C//DTD SVG 20010904//EN"
 "http://www.w3.org/TR/2001/REC-SVG-20010904/DTD/svg10.dtd">
<svg version="1.0" xmlns="http://www.w3.org/2000/svg"
 width="113.000000pt" height="40.000000pt" viewBox="0 0 113.000000 40.000000"
 preserveAspectRatio="xMidYMid meet">

<g transform="translate(0.000000,40.000000) scale(0.100000,-0.100000)"
fill="#000000" stroke="none">
<path d="M70 307 c-53 -27 -48 -90 14 -192 l24 -40 36 75 c20 41 36 84 36 96
0 50 -63 85 -110 61z m84 -29 c21 -30 20 -47 -6 -75 -28 -30 -62 -29 -87 3
-25 32 -26 43 -5 72 10 15 25 22 49 22 24 0 39 -7 49 -22z"/>
<path d="M75 271 c-19 -8 -19 -8 3 -20 23 -12 62 -7 62 9 0 8 -25 21 -38 19
-4 0 -16 -4 -27 -8z"/>
<path d="M88 227 c14 -6 26 -7 32 -1 5 5 -4 9 -23 10 -30 1 -30 1 -9 -9z"/>
<path d="M710 240 c0 -47 3 -60 15 -60 10 0 15 10 15 30 0 20 5 30 15 30 10 0
15 -10 15 -30 0 -16 5 -30 11 -30 6 0 9 16 7 38 -3 31 -7 37 -25 36 -18 0 -23
5 -23 23 0 14 -6 23 -15 23 -12 0 -15 -13 -15 -60z"/>
<path d="M930 240 c0 -41 4 -60 13 -60 8 0 11 17 9 60 -5 78 -22 78 -22 0z"/>
<path d="M458 273 c-6 -25 3 -93 12 -93 9 0 18 68 12 93 -2 9 -8 17 -12 17 -4
0 -10 -8 -12 -17z"/>
<path d="M238 204 c2 -29 8 -54 13 -54 5 0 9 8 9 18 0 13 7 18 21 18 12 -1 26
7 33 17 17 26 -4 52 -45 54 l-34 2 3 -55z m57 16 c0 -8 -8 -16 -17 -18 -13 -2
-18 3 -18 18 0 15 5 20 18 18 9 -2 17 -10 17 -18z"/>
<path d="M351 247 c-28 -28 -5 -65 42 -65 25 0 27 4 27 38 0 34 -2 37 -29 38
-15 0 -33 -4 -40 -11z m49 -27 c0 -11 -6 -20 -14 -20 -18 0 -29 16 -21 30 11
18 35 11 35 -10z"/>
<path d="M514 245 c-3 -7 -4 -24 -2 -37 2 -19 9 -23 41 -25 36 -1 37 0 37 36
0 36 -1 38 -35 39 -23 1 -38 -4 -41 -13z m51 -25 c0 -8 -8 -16 -17 -18 -13 -2
-18 3 -18 18 0 15 5 20 18 18 9 -2 17 -10 17 -18z"/>
<path d="M624 248 c-4 -6 2 -19 14 -29 28 -22 28 -32 0 -24 -18 6 -20 4 -12
-5 7 -6 20 -10 30 -8 27 5 30 35 5 43 -12 3 -21 11 -21 17 0 5 7 8 15 4 8 -3
15 -1 15 4 0 14 -37 12 -46 -2z"/>
<path d="M820 231 c0 -36 22 -55 55 -47 21 5 25 12 25 41 0 19 -4 35 -10 35
-5 0 -10 -14 -10 -31 0 -24 -4 -30 -17 -27 -11 2 -19 14 -21 31 -4 36 -22 35
-22 -2z"/>
<path d="M992 248 c-32 -32 0 -75 45 -62 l28 8 -25 4 c-40 6 -48 22 -12 22 21
0 32 5 32 14 0 25 -47 35 -68 14z m43 -8 c3 -5 -3 -10 -15 -10 -12 0 -18 5
-15 10 3 6 10 10 15 10 5 0 12 -4 15 -10z"/>
</g>
</svg>
