<svg width="400" height="300" viewBox="0 0 400 300" fill="none" xmlns="http://www.w3.org/2000/svg">
<rect width="400" height="300" fill="#F72B1E"/>
<path d="M36.739 147.951C20.0903 126.558 17 124.362 17 116.5C17 105.73 26.8497 97 39 97C51.1503 97 61 105.73 61 116.5C61 124.362 57.9097 126.558 41.261 147.951C40.1684 149.35 37.8315 149.35 36.739 147.951ZM39 124.625C44.0626 124.625 48.1667 120.987 48.1667 116.5C48.1667 112.013 44.0626 108.375 39 108.375C33.9374 108.375 29.8333 112.013 29.8333 116.5C29.8333 120.987 33.9374 124.625 39 124.625Z" fill="white"/>
<path d="M79.504 118.832C79.696 118.832 80.056 119.024 80.584 119.408C81.112 119.792 81.664 119.984 82.24 119.984H82.312C83.944 119.984 85.24 119.336 86.2 118.04C87.16 116.744 87.688 115.448 87.784 114.152L88 112.208C88 110.384 87.712 108.824 87.136 107.528C86.608 106.184 85.984 105.2 85.264 104.576C84.544 103.904 83.704 103.4 82.744 103.064C81.544 102.584 80.272 102.344 78.928 102.344C77.632 102.344 76.576 102.488 75.76 102.776C74.944 103.016 74.488 103.256 74.392 103.496L74.32 103.928C73.888 110.408 73.672 116.216 73.672 121.352C73.672 126.44 73.744 130.832 73.888 134.528C74.08 138.224 74.248 141.08 74.392 143.096C74.584 145.064 74.68 146.144 74.68 146.336C74.68 147.536 73.624 148.496 71.512 149.216C69.4 149.936 67.312 150.296 65.248 150.296C64.288 150.296 63.808 150.056 63.808 149.576C63.808 149.432 63.88 149.096 64.024 148.568C64.936 146.456 65.392 136.64 65.392 119.12C65.392 108.8 64.696 102.896 63.304 101.408C63.016 101.12 62.872 100.832 62.872 100.544C62.872 100.208 63.208 99.848 63.88 99.464C64.6 99.08 66.568 98.648 69.784 98.168C73 97.64 76.408 97.376 80.008 97.376C85.672 97.376 89.92 98.912 92.752 101.984C95.632 105.056 97.072 108.728 97.072 113C97.072 117.224 95.896 120.896 93.544 124.016C91.24 127.136 88.216 128.696 84.472 128.696C83.272 128.696 82.072 128.48 80.872 128.048C78.472 127.184 77.272 125.384 77.272 122.648C77.272 122.072 77.464 121.304 77.848 120.344C78.232 119.336 78.784 118.832 79.504 118.832ZM117.528 107.744C113.736 112.496 111 117.248 109.32 122H109.392C116.064 122 119.88 122.024 120.84 122.072C121.848 122.072 122.4 122.024 122.496 121.928C122.592 121.832 122.664 121.712 122.712 121.568C121.896 115.664 121.248 111.656 120.768 109.544C120.288 107.384 119.808 106.304 119.328 106.304C118.848 106.304 118.248 106.784 117.528 107.744ZM111.12 141.656L112.704 141.368C113.184 141.368 113.424 141.632 113.424 142.16C113.424 143.84 113.088 145.256 112.416 146.408C111.744 147.56 110.904 148.376 109.896 148.856C108.264 149.672 106.872 150.08 105.72 150.08C103.512 150.08 101.856 149.264 100.752 147.632C99.6484 145.952 99.0964 143.456 99.0964 140.144C99.0964 136.784 100.008 132.44 101.832 127.112H97.6564C97.1284 127.112 96.8644 126.848 96.8644 126.32C96.8644 125.792 97.2724 124.952 98.0884 123.8C98.9044 122.6 99.7684 122 100.68 122H103.92C107.328 114.416 111.336 107.864 115.944 102.344C117.144 100.904 118.608 99.56 120.336 98.312C122.112 97.064 123.48 96.44 124.44 96.44C125.4 96.44 126.12 96.872 126.6 97.736C127.848 99.752 129.312 107.12 130.992 119.84C131.568 125.312 132.552 130.976 133.944 136.832C135.384 142.64 136.704 146.024 137.904 146.984C138.192 147.176 138.336 147.416 138.336 147.704C138.336 148.424 137.304 149.096 135.24 149.72C133.224 150.344 131.664 150.656 130.56 150.656C129.504 150.656 128.688 150.512 128.112 150.224C127.536 149.984 127.176 149.72 127.032 149.432C126.168 147.56 125.304 143.096 124.44 136.04L124.008 132.656C123.816 130.4 123.624 128.696 123.432 127.544L122.928 127.184L107.88 127.112C107.304 129.56 107.016 131.696 107.016 133.52C107.016 135.344 107.064 136.688 107.16 137.552C107.304 138.368 107.712 139.256 108.384 140.216C109.056 141.176 109.968 141.656 111.12 141.656ZM144.292 97.736L154.66 98.312C159.268 98.312 162.58 97.76 164.596 96.656C164.884 96.464 165.124 96.368 165.316 96.368C165.556 96.368 165.676 96.704 165.676 97.376C165.676 98.048 165.268 99.152 164.452 100.688C163.252 103.04 161.524 104.216 159.268 104.216L155.308 104.144C154.924 104.144 154.684 104.36 154.588 104.792C154.252 111.848 154.084 119.48 154.084 127.688C154.084 135.848 154.42 141.992 155.092 146.12V146.48C155.092 147.68 153.94 148.64 151.636 149.36C149.38 150.08 147.244 150.44 145.228 150.44C144.268 150.44 143.788 150.176 143.788 149.648C143.788 149.504 143.86 149.168 144.004 148.64C144.532 147.584 144.988 142.472 145.372 133.304C145.804 124.136 146.02 117.224 146.02 112.568L145.876 104.72C145.876 104.432 145.732 104.264 145.444 104.216C144.436 104.024 143.284 103.928 141.988 103.928C139.396 103.928 137.476 104.456 136.228 105.512C135.892 105.752 135.58 105.872 135.292 105.872C134.956 105.872 134.788 105.68 134.788 105.296C134.788 104.72 135.1 103.928 135.724 102.92C136.3 101.912 136.924 101.048 137.596 100.328C139.228 98.6 141.46 97.736 144.292 97.736ZM182.708 107.744C178.916 112.496 176.18 117.248 174.5 122H174.572C181.244 122 185.06 122.024 186.02 122.072C187.028 122.072 187.58 122.024 187.676 121.928C187.772 121.832 187.844 121.712 187.892 121.568C187.076 115.664 186.428 111.656 185.948 109.544C185.468 107.384 184.988 106.304 184.508 106.304C184.028 106.304 183.428 106.784 182.708 107.744ZM176.3 141.656L177.884 141.368C178.364 141.368 178.604 141.632 178.604 142.16C178.604 143.84 178.268 145.256 177.596 146.408C176.924 147.56 176.084 148.376 175.076 148.856C173.444 149.672 172.052 150.08 170.9 150.08C168.692 150.08 167.036 149.264 165.932 147.632C164.828 145.952 164.276 143.456 164.276 140.144C164.276 136.784 165.188 132.44 167.012 127.112H162.836C162.308 127.112 162.044 126.848 162.044 126.32C162.044 125.792 162.452 124.952 163.268 123.8C164.084 122.6 164.948 122 165.86 122H169.1C172.508 114.416 176.516 107.864 181.124 102.344C182.324 100.904 183.788 99.56 185.516 98.312C187.292 97.064 188.66 96.44 189.62 96.44C190.58 96.44 191.3 96.872 191.78 97.736C193.028 99.752 194.492 107.12 196.172 119.84C196.748 125.312 197.732 130.976 199.124 136.832C200.564 142.64 201.884 146.024 203.084 146.984C203.372 147.176 203.516 147.416 203.516 147.704C203.516 148.424 202.484 149.096 200.42 149.72C198.404 150.344 196.844 150.656 195.74 150.656C194.684 150.656 193.868 150.512 193.292 150.224C192.716 149.984 192.356 149.72 192.212 149.432C191.348 147.56 190.484 143.096 189.62 136.04L189.188 132.656C188.996 130.4 188.804 128.696 188.612 127.544L188.108 127.184L173.06 127.112C172.484 129.56 172.196 131.696 172.196 133.52C172.196 135.344 172.244 136.688 172.34 137.552C172.484 138.368 172.892 139.256 173.564 140.216C174.236 141.176 175.148 141.656 176.3 141.656ZM228.158 109.112L228.446 106.88C228.446 104.672 227.582 103.256 225.854 102.632C224.51 102.2 223.478 101.984 222.758 101.984H222.686C221.246 101.984 219.998 102.224 218.942 102.704C217.886 103.136 217.118 103.688 216.638 104.36C215.63 105.752 215.054 107.216 214.91 108.752C214.91 110.576 215.726 112.16 217.358 113.504C218.99 114.8 220.958 115.952 223.262 116.96C225.614 117.92 227.942 118.976 230.246 120.128C232.598 121.28 234.59 122.936 236.222 125.096C237.854 127.256 238.67 129.848 238.67 132.872C238.67 138.776 236.798 143.192 233.054 146.12C229.358 149.048 225.134 150.512 220.382 150.512C215.678 150.512 211.766 149.456 208.646 147.344C205.574 145.184 204.038 142.304 204.038 138.704V138.632C204.038 136.856 204.302 135.32 204.83 134.024C205.406 132.68 206.078 131.696 206.846 131.072C208.43 129.776 209.87 129.08 211.166 128.984L212.03 128.912C213.374 128.912 214.598 129.248 215.702 129.92C216.806 130.544 217.358 131.432 217.358 132.584C217.358 133.16 217.046 133.64 216.422 134.024C215.798 134.408 215.246 134.984 214.766 135.752C214.334 136.52 214.094 137.168 214.046 137.696L213.902 138.488C213.902 141.416 215.246 143.36 217.934 144.32C218.894 144.656 219.662 144.824 220.238 144.824C222.878 144.824 224.99 144.032 226.574 142.448C228.206 140.864 229.022 138.848 229.022 136.4C229.022 133.472 227.774 131.096 225.278 129.272C223.406 127.928 221.366 126.8 219.158 125.888C216.998 124.976 215.534 124.328 214.766 123.944C213.998 123.56 213.182 123.104 212.318 122.576C211.454 122.048 210.494 121.304 209.438 120.344C207.134 118.328 205.982 115.616 205.982 112.208C205.982 108.752 206.918 105.848 208.79 103.496C212.15 99.224 217.19 97.088 223.91 97.088C227.462 97.088 230.462 97.784 232.91 99.176C235.358 100.52 236.582 102.392 236.582 104.792C236.582 106.52 236.078 107.96 235.07 109.112C234.11 110.264 232.862 110.84 231.326 110.84C230.606 110.84 229.886 110.696 229.166 110.408C228.494 110.12 228.158 109.688 228.158 109.112ZM254.061 117.104V118.112H266.805V117.968C266.853 116.816 266.877 115.376 266.877 113.648C266.877 111.872 266.853 110.336 266.805 109.04C266.757 107.696 266.709 106.568 266.661 105.656C266.613 104.744 266.541 103.952 266.445 103.28C266.397 102.608 266.349 102.104 266.301 101.768C266.253 101.384 266.229 101.048 266.229 100.76C266.229 100.472 266.493 100.136 267.021 99.752C269.325 98.216 271.893 97.448 274.725 97.448C276.501 97.448 277.389 97.76 277.389 98.384C277.389 98.432 277.341 98.696 277.245 99.176C276.333 103.736 275.757 110.048 275.517 118.112C275.373 126.176 275.301 130.496 275.301 131.072C275.301 138.512 275.733 143.672 276.597 146.552C276.741 146.936 276.813 147.272 276.813 147.56C276.813 147.8 276.621 148.088 276.237 148.424C274.461 149.576 272.157 150.152 269.325 150.152C267.501 150.152 266.469 149.528 266.229 148.28C266.085 147.608 266.013 146.576 266.013 145.184C266.013 143.744 266.085 141.56 266.229 138.632C266.421 135.704 266.565 130.592 266.661 123.296H254.061C254.061 134.24 254.397 141.92 255.069 146.336C255.069 147.488 253.965 148.424 251.757 149.144C249.549 149.912 247.725 150.296 246.285 150.296C244.845 150.296 244.125 150.08 244.125 149.648C244.125 149.36 244.197 149 244.341 148.568C245.253 146.552 245.709 138.44 245.709 124.232V123.296H241.461C241.077 123.296 240.885 123.152 240.885 122.864C240.885 122.768 240.981 122.408 241.173 121.784C241.365 121.112 241.797 120.344 242.469 119.48C243.189 118.616 243.981 118.184 244.845 118.184H245.637C245.637 108.728 245.085 103.28 243.981 101.84L243.693 101.408C243.405 101.168 243.261 100.88 243.261 100.544C243.261 100.16 243.525 99.848 244.053 99.608C244.773 99.176 246.045 98.744 247.869 98.312C249.741 97.88 251.421 97.664 252.909 97.664C254.397 97.664 255.141 98 255.141 98.672V98.888C254.565 103.88 254.205 109.952 254.061 117.104ZM282.992 136.472L283.496 116.24C283.496 113.12 283.424 110.552 283.28 108.536C283.04 104.936 282.632 102.68 282.056 101.768L281.768 101.336C281.528 101.144 281.408 100.904 281.408 100.616C281.408 99.704 282.608 98.984 285.008 98.456C287.408 97.88 289.424 97.592 291.056 97.592C292.688 97.592 293.504 98.048 293.504 98.96L293.432 99.752C292.76 104.504 292.352 110.144 292.208 116.672C292.064 123.152 291.992 127.4 291.992 129.416C291.992 131.432 292.064 133.112 292.208 134.456C292.352 135.8 292.424 136.592 292.424 136.832C292.472 137.024 292.592 137.432 292.784 138.056C293.024 138.632 293.312 139.16 293.648 139.64C294.512 140.792 295.736 141.368 297.32 141.368C298.904 141.368 300.224 141.008 301.28 140.288C302.384 139.568 303.2 138.68 303.728 137.624C304.832 135.368 305.504 133.424 305.744 131.792L305.888 130.712C306.128 127.304 306.248 123.272 306.248 118.616C306.248 113.96 306.224 110.912 306.176 109.472C306.128 108.032 306.056 106.856 305.96 105.944C305.864 104.984 305.768 104.144 305.672 103.424C305.624 102.704 305.576 102.152 305.528 101.768C305.48 101.336 305.456 101.096 305.456 101.048C305.456 100.52 305.72 100.088 306.248 99.752C307.064 99.128 308.312 98.6 309.992 98.168C311.72 97.736 313.256 97.52 314.6 97.52C315.944 97.52 316.616 97.832 316.616 98.456C316.616 98.552 316.496 99.344 316.256 100.832C315.2 107.36 314.672 116.432 314.672 128.048C314.672 136.64 315.248 142.76 316.4 146.408C316.592 146.984 316.688 147.392 316.688 147.632C316.688 147.824 316.496 148.088 316.112 148.424C314.672 149.528 312.752 150.08 310.352 150.08C308 150.08 306.728 149.48 306.536 148.28C306.296 147.656 306.152 146.408 306.104 144.536L306.032 143.672C306.032 143.24 305.936 143.024 305.744 143.024L304.952 143.528C304.04 145.064 302.984 146.36 301.784 147.416C300.584 148.424 299.432 149.12 298.328 149.504C296.744 150.08 295.184 150.368 293.648 150.368C292.16 150.368 290.648 149.96 289.112 149.144C287.624 148.376 286.496 147.464 285.728 146.408C285.008 145.352 284.408 144.104 283.928 142.664C283.304 140.6 282.992 138.536 282.992 136.472ZM340.801 148.928L336.697 148.856C336.121 148.856 335.545 148.856 334.969 148.856L321.865 149.504C321.145 149.504 320.785 149.264 320.785 148.784C320.785 148.64 320.857 148.304 321.001 147.776C321.481 146.672 321.817 143.168 322.009 137.264C322.249 131.36 322.369 125.984 322.369 121.136C322.369 116.24 322.273 112.28 322.081 109.256C321.793 104.696 321.313 101.96 320.641 101.048C320.113 100.376 319.849 99.944 319.849 99.752C319.849 98.984 321.145 98.312 323.737 97.736C326.329 97.16 328.177 96.872 329.281 96.872C330.433 96.872 331.153 96.944 331.441 97.088C331.729 97.184 331.873 97.424 331.873 97.808C331.873 98.192 331.777 99.416 331.585 101.48C331.105 107.576 330.865 114.68 330.865 122.792C330.865 130.856 331.057 137.312 331.441 142.16C331.441 142.688 331.897 143.144 332.809 143.528C333.721 143.912 334.849 144.104 336.193 144.104C340.897 144.104 343.249 140.48 343.249 133.232C343.249 131.216 343.129 129.968 342.889 129.488C342.697 129.008 342.601 128.696 342.601 128.552C342.601 128.072 342.937 127.832 343.609 127.832C344.137 127.832 344.833 128.096 345.697 128.624C346.609 129.152 347.353 129.824 347.929 130.64C348.505 131.408 349.033 132.656 349.513 134.384C349.993 136.064 350.233 138.056 350.233 140.36C350.233 146.072 349.537 148.928 348.145 148.928C345.697 148.928 343.249 148.928 340.801 148.928ZM384.166 140.072C384.166 143.432 383.086 145.928 380.926 147.56C378.814 149.192 375.838 150.008 371.998 150.008C365.854 150.008 361.318 147.968 358.39 143.888C355.51 139.808 354.07 134.48 354.07 127.904C354.07 126.848 354.118 125.312 354.214 123.296H350.182C349.798 123.296 349.606 123.152 349.606 122.864C349.606 122.048 350.014 121.064 350.83 119.912C351.646 118.76 352.534 118.184 353.494 118.184H354.862C355.486 114.728 356.494 111.68 357.886 109.04C359.326 106.4 360.814 104.36 362.35 102.92C363.934 101.48 365.662 100.328 367.534 99.464C370.51 98.024 373.63 97.304 376.894 97.304C380.158 97.304 382.198 97.832 383.014 98.888C383.398 99.416 383.59 100.4 383.59 101.84C383.59 103.232 383.422 103.928 383.086 103.928C383.038 103.928 382.822 103.832 382.438 103.64C381.19 103.064 379.63 102.776 377.758 102.776C373.678 102.776 370.486 104.216 368.182 107.096C365.926 109.976 364.414 113.672 363.646 118.184C367.294 118.136 372.238 118.112 378.478 118.112C378.958 118.112 379.198 118.28 379.198 118.616C379.198 119.384 378.814 120.368 378.046 121.568C377.278 122.72 376.414 123.296 375.454 123.296H363.07C363.022 123.872 362.998 125.144 362.998 127.112C362.998 129.032 363.334 131.072 364.006 133.232C364.726 135.344 366.022 137.144 367.894 138.632C369.814 140.12 372.286 140.864 375.31 140.864C378.334 140.864 380.878 140.192 382.942 138.848C383.182 138.656 383.398 138.56 383.59 138.56C383.974 138.56 384.166 139.064 384.166 140.072Z" fill="white"/>
</svg>
