<svg width="25" height="25" viewBox="0 0 25 25" fill="none" xmlns="http://www.w3.org/2000/svg">
<g clip-path="url(#clip0)">
<rect width="25" height="25" fill="white"/>
<path d="M11.8695 24.5158C3.54516 14.6421 2 13.6287 2 10C2 5.02942 6.92485 1 13 1C19.0752 1 24 5.02942 24 10C24 13.6287 22.4548 14.6421 14.1305 24.5158C13.5842 25.1614 12.4157 25.1614 11.8695 24.5158ZM13 13.75C15.5313 13.75 17.5833 12.0711 17.5833 10C17.5833 7.92892 15.5313 6.25 13 6.25C10.4687 6.25 8.41667 7.92892 8.41667 10C8.41667 12.0711 10.4687 13.75 13 13.75Z" fill="black"/>
</g>
<defs>
<clipPath id="clip0">
<rect width="25" height="25" fill="white"/>
</clipPath>
</defs>
</svg>
