<svg width="276" height="93" viewBox="0 0 276 93" fill="none" xmlns="http://www.w3.org/2000/svg">
<g clip-path="url(#clip0)">
<rect width="276" height="93" fill="#F54F2B"/>
<path d="M41.91 55.9376C30.4224 42.8273 28.29 41.4818 28.29 36.6635C28.29 30.0636 35.0863 24.7134 43.47 24.7134C51.8537 24.7134 58.65 30.0636 58.65 36.6635C58.65 41.4818 56.5177 42.8273 45.0301 55.9376C44.2762 56.7949 42.6638 56.7948 41.91 55.9376ZM43.47 41.6428C46.9633 41.6428 49.795 39.4135 49.795 36.6635C49.795 33.9136 46.9633 31.6843 43.47 31.6843C39.9768 31.6843 37.145 33.9136 37.145 36.6635C37.145 39.4135 39.9768 41.6428 43.47 41.6428Z" fill="white"/>
<path d="M83.7031 41.8315C83.7031 45.6909 82.8203 48.8003 81.0547 51.1597C79.2891 53.519 76.8984 54.6987 73.8828 54.6987C70.8047 54.6987 68.3828 53.7222 66.6172 51.769V63.98H62.2812V28.8706H66.2422L66.4531 31.6831C68.2188 29.4956 70.6719 28.4019 73.8125 28.4019C76.8594 28.4019 79.2656 29.5503 81.0312 31.8472C82.8125 34.144 83.7031 37.3394 83.7031 41.4331V41.8315ZM79.3672 41.3394C79.3672 38.48 78.7578 36.2222 77.5391 34.5659C76.3203 32.9097 74.6484 32.0815 72.5234 32.0815C69.8984 32.0815 67.9297 33.2456 66.6172 35.5737V47.6909C67.9141 50.0034 69.8984 51.1597 72.5703 51.1597C74.6484 51.1597 76.2969 50.3394 77.5156 48.6987C78.75 47.0425 79.3672 44.5894 79.3672 41.3394ZM104.891 54.23C104.641 53.73 104.438 52.8394 104.281 51.5581C102.266 53.6519 99.8594 54.6987 97.0625 54.6987C94.5625 54.6987 92.5078 53.9956 90.8984 52.5894C89.3047 51.1675 88.5078 49.3706 88.5078 47.1987C88.5078 44.5581 89.5078 42.5112 91.5078 41.0581C93.5234 39.5894 96.3516 38.855 99.9922 38.855H104.211V36.8628C104.211 35.3472 103.758 34.144 102.852 33.2534C101.945 32.3472 100.609 31.894 98.8438 31.894C97.2969 31.894 96 32.2847 94.9531 33.0659C93.9062 33.8472 93.3828 34.7925 93.3828 35.9019H89.0234C89.0234 34.6362 89.4688 33.4175 90.3594 32.2456C91.2656 31.0581 92.4844 30.1206 94.0156 29.4331C95.5625 28.7456 97.2578 28.4019 99.1016 28.4019C102.023 28.4019 104.312 29.1362 105.969 30.605C107.625 32.0581 108.484 34.0659 108.547 36.6284V48.3003C108.547 50.6284 108.844 52.48 109.438 53.855V54.23H104.891ZM97.6953 50.9253C99.0547 50.9253 100.344 50.5737 101.562 49.8706C102.781 49.1675 103.664 48.2534 104.211 47.1284V41.9253H100.812C95.5 41.9253 92.8438 43.48 92.8438 46.5894C92.8438 47.9487 93.2969 49.0112 94.2031 49.7769C95.1094 50.5425 96.2734 50.9253 97.6953 50.9253ZM121.227 22.73V28.8706H125.961V32.2222H121.227V47.9487C121.227 48.9644 121.438 49.73 121.859 50.2456C122.281 50.7456 123 50.9956 124.016 50.9956C124.516 50.9956 125.203 50.9019 126.078 50.7144V54.23C124.938 54.5425 123.828 54.6987 122.75 54.6987C120.812 54.6987 119.352 54.1128 118.367 52.9409C117.383 51.769 116.891 50.105 116.891 47.9487V32.2222H112.273V28.8706H116.891V22.73H121.227ZM146.703 54.23C146.453 53.73 146.25 52.8394 146.094 51.5581C144.078 53.6519 141.672 54.6987 138.875 54.6987C136.375 54.6987 134.32 53.9956 132.711 52.5894C131.117 51.1675 130.32 49.3706 130.32 47.1987C130.32 44.5581 131.32 42.5112 133.32 41.0581C135.336 39.5894 138.164 38.855 141.805 38.855H146.023V36.8628C146.023 35.3472 145.57 34.144 144.664 33.2534C143.758 32.3472 142.422 31.894 140.656 31.894C139.109 31.894 137.812 32.2847 136.766 33.0659C135.719 33.8472 135.195 34.7925 135.195 35.9019H130.836C130.836 34.6362 131.281 33.4175 132.172 32.2456C133.078 31.0581 134.297 30.1206 135.828 29.4331C137.375 28.7456 139.07 28.4019 140.914 28.4019C143.836 28.4019 146.125 29.1362 147.781 30.605C149.438 32.0581 150.297 34.0659 150.359 36.6284V48.3003C150.359 50.6284 150.656 52.48 151.25 53.855V54.23H146.703ZM139.508 50.9253C140.867 50.9253 142.156 50.5737 143.375 49.8706C144.594 49.1675 145.477 48.2534 146.023 47.1284V41.9253H142.625C137.312 41.9253 134.656 43.48 134.656 46.5894C134.656 47.9487 135.109 49.0112 136.016 49.7769C136.922 50.5425 138.086 50.9253 139.508 50.9253ZM171.922 47.5034C171.922 46.3315 171.477 45.4253 170.586 44.7847C169.711 44.1284 168.172 43.5659 165.969 43.0972C163.781 42.6284 162.039 42.0659 160.742 41.4097C159.461 40.7534 158.508 39.9722 157.883 39.0659C157.273 38.1597 156.969 37.0815 156.969 35.8315C156.969 33.7534 157.844 31.9956 159.594 30.5581C161.359 29.1206 163.609 28.4019 166.344 28.4019C169.219 28.4019 171.547 29.144 173.328 30.6284C175.125 32.1128 176.023 34.0112 176.023 36.3237H171.664C171.664 35.1362 171.156 34.1128 170.141 33.2534C169.141 32.394 167.875 31.9644 166.344 31.9644C164.766 31.9644 163.531 32.3081 162.641 32.9956C161.75 33.6831 161.305 34.5815 161.305 35.6909C161.305 36.7378 161.719 37.5269 162.547 38.0581C163.375 38.5894 164.867 39.0972 167.023 39.5815C169.195 40.0659 170.953 40.644 172.297 41.3159C173.641 41.9878 174.633 42.8003 175.273 43.7534C175.93 44.6909 176.258 45.8394 176.258 47.1987C176.258 49.4644 175.352 51.2847 173.539 52.6597C171.727 54.019 169.375 54.6987 166.484 54.6987C164.453 54.6987 162.656 54.3394 161.094 53.6206C159.531 52.9019 158.305 51.9019 157.414 50.6206C156.539 49.3237 156.102 47.9253 156.102 46.4253H160.438C160.516 47.8784 161.094 49.0347 162.172 49.894C163.266 50.7378 164.703 51.1597 166.484 51.1597C168.125 51.1597 169.438 50.8315 170.422 50.1753C171.422 49.5034 171.922 48.6128 171.922 47.5034ZM186.242 31.9409C188.164 29.5815 190.664 28.4019 193.742 28.4019C199.102 28.4019 201.805 31.4253 201.852 37.4722V54.23H197.516V37.4487C197.5 35.6206 197.078 34.269 196.25 33.394C195.438 32.519 194.164 32.0815 192.43 32.0815C191.023 32.0815 189.789 32.4565 188.727 33.2065C187.664 33.9565 186.836 34.9409 186.242 36.1597V54.23H181.906V18.23H186.242V31.9409ZM224 51.7222C222.312 53.7065 219.836 54.6987 216.57 54.6987C213.867 54.6987 211.805 53.9175 210.383 52.355C208.977 50.7769 208.266 48.4487 208.25 45.3706V28.8706H212.586V45.2534C212.586 49.0972 214.148 51.019 217.273 51.019C220.586 51.019 222.789 49.7847 223.883 47.3159V28.8706H228.219V54.23H224.094L224 51.7222ZM239.539 54.23H235.203V18.23H239.539V54.23ZM257.023 54.6987C253.586 54.6987 250.789 53.5737 248.633 51.3237C246.477 49.0581 245.398 46.0347 245.398 42.2534V41.4565C245.398 38.9409 245.875 36.6987 246.828 34.73C247.797 32.7456 249.141 31.1987 250.859 30.0894C252.594 28.9644 254.469 28.4019 256.484 28.4019C259.781 28.4019 262.344 29.4878 264.172 31.6597C266 33.8315 266.914 36.9409 266.914 40.9878V42.7925H249.734C249.797 45.2925 250.523 47.3159 251.914 48.8628C253.32 50.394 255.102 51.1597 257.258 51.1597C258.789 51.1597 260.086 50.8472 261.148 50.2222C262.211 49.5972 263.141 48.769 263.938 47.7378L266.586 49.8003C264.461 53.0659 261.273 54.6987 257.023 54.6987ZM256.484 31.9644C254.734 31.9644 253.266 32.605 252.078 33.8862C250.891 35.1519 250.156 36.9331 249.875 39.23H262.578V38.9019C262.453 36.6987 261.859 34.9956 260.797 33.7925C259.734 32.5737 258.297 31.9644 256.484 31.9644Z" fill="white"/>
</g>
<defs>
<clipPath id="clip0">
<rect width="276" height="93" fill="white"/>
</clipPath>
</defs>
</svg>
