<svg width="370" height="100" viewBox="0 0 370 100" fill="none" xmlns="http://www.w3.org/2000/svg">
<rect width="370" height="100" fill="#5EE2FF"/>
<g id="Desktop - 1">
<rect width="1440" height="1024" transform="translate(-1 -1)" fill="#D45749"/>
<rect id="Rectangle 1" x="-1" y="-1" width="1440" height="100" fill="#D45749"/>
<rect id="Rectangle 2" width="370" height="100" fill="#D45749"/>
<path id="Patashule" d="M56.752 40.392C57.904 38.3867 59.6107 36.7227 61.872 35.4C64.176 34.0347 66.8427 33.352 69.872 33.352C72.9867 33.352 75.8027 34.0987 78.32 35.592C80.88 37.0853 82.8853 39.1973 84.336 41.928C85.7867 44.616 86.512 47.752 86.512 51.336C86.512 54.8773 85.7867 58.0347 84.336 60.808C82.8853 63.5813 80.88 65.736 78.32 67.272C75.8027 68.808 72.9867 69.576 69.872 69.576C66.8853 69.576 64.24 68.9147 61.936 67.592C59.6747 66.2267 57.9467 64.5413 56.752 62.536V85.64H50.928V33.928H56.752V40.392ZM80.56 51.336C80.56 48.6907 80.0267 46.3867 78.96 44.424C77.8933 42.4613 76.4427 40.968 74.608 39.944C72.816 38.92 70.832 38.408 68.656 38.408C66.5227 38.408 64.5387 38.9413 62.704 40.008C60.912 41.032 59.4613 42.5467 58.352 44.552C57.2853 46.5147 56.752 48.7973 56.752 51.4C56.752 54.0453 57.2853 56.3707 58.352 58.376C59.4613 60.3387 60.912 61.8533 62.704 62.92C64.5387 63.944 66.5227 64.456 68.656 64.456C70.832 64.456 72.816 63.944 74.608 62.92C76.4427 61.8533 77.8933 60.3387 78.96 58.376C80.0267 56.3707 80.56 54.024 80.56 51.336ZM92.002 51.336C92.002 47.752 92.7273 44.616 94.178 41.928C95.6287 39.1973 97.6127 37.0853 100.13 35.592C102.69 34.0987 105.527 33.352 108.642 33.352C111.714 33.352 114.381 34.0133 116.642 35.336C118.903 36.6587 120.589 38.3227 121.698 40.328V33.928H127.586V69H121.698V62.472C120.546 64.52 118.818 66.2267 116.514 67.592C114.253 68.9147 111.607 69.576 108.578 69.576C105.463 69.576 102.647 68.808 100.13 67.272C97.6127 65.736 95.6287 63.5813 94.178 60.808C92.7273 58.0347 92.002 54.8773 92.002 51.336ZM121.698 51.4C121.698 48.7547 121.165 46.4507 120.098 44.488C119.031 42.5253 117.581 41.032 115.746 40.008C113.954 38.9413 111.97 38.408 109.794 38.408C107.618 38.408 105.634 38.92 103.842 39.944C102.05 40.968 100.621 42.4613 99.554 44.424C98.4873 46.3867 97.954 48.6907 97.954 51.336C97.954 54.024 98.4873 56.3707 99.554 58.376C100.621 60.3387 102.05 61.8533 103.842 62.92C105.634 63.944 107.618 64.456 109.794 64.456C111.97 64.456 113.954 63.944 115.746 62.92C117.581 61.8533 119.031 60.3387 120.098 58.376C121.165 56.3707 121.698 54.0453 121.698 51.4ZM144.532 38.728V59.4C144.532 61.1067 144.895 62.3227 145.62 63.048C146.345 63.7307 147.604 64.072 149.396 64.072H153.684V69H148.436C145.193 69 142.761 68.2533 141.14 66.76C139.519 65.2667 138.708 62.8133 138.708 59.4V38.728H134.164V33.928H138.708V25.096H144.532V33.928H153.684V38.728H144.532ZM158.565 51.336C158.565 47.752 159.29 44.616 160.741 41.928C162.191 39.1973 164.175 37.0853 166.693 35.592C169.253 34.0987 172.09 33.352 175.205 33.352C178.277 33.352 180.943 34.0133 183.205 35.336C185.466 36.6587 187.151 38.3227 188.261 40.328V33.928H194.149V69H188.261V62.472C187.109 64.52 185.381 66.2267 183.077 67.592C180.815 68.9147 178.17 69.576 175.141 69.576C172.026 69.576 169.21 68.808 166.693 67.272C164.175 65.736 162.191 63.5813 160.741 60.808C159.29 58.0347 158.565 54.8773 158.565 51.336ZM188.261 51.4C188.261 48.7547 187.727 46.4507 186.661 44.488C185.594 42.5253 184.143 41.032 182.309 40.008C180.517 38.9413 178.533 38.408 176.357 38.408C174.181 38.408 172.197 38.92 170.405 39.944C168.613 40.968 167.183 42.4613 166.117 44.424C165.05 46.3867 164.517 48.6907 164.517 51.336C164.517 54.024 165.05 56.3707 166.117 58.376C167.183 60.3387 168.613 61.8533 170.405 62.92C172.197 63.944 174.181 64.456 176.357 64.456C178.533 64.456 180.517 63.944 182.309 62.92C184.143 61.8533 185.594 60.3387 186.661 58.376C187.727 56.3707 188.261 54.0453 188.261 51.4ZM216.407 69.576C213.719 69.576 211.308 69.128 209.175 68.232C207.041 67.2933 205.356 66.0133 204.119 64.392C202.881 62.728 202.199 60.8293 202.071 58.696H208.087C208.257 60.4453 209.068 61.8747 210.519 62.984C212.012 64.0933 213.953 64.648 216.343 64.648C218.561 64.648 220.311 64.1573 221.591 63.176C222.871 62.1947 223.511 60.9573 223.511 59.464C223.511 57.928 222.828 56.7973 221.463 56.072C220.097 55.304 217.985 54.5573 215.127 53.832C212.524 53.1493 210.391 52.4667 208.727 51.784C207.105 51.0587 205.697 50.0133 204.503 48.648C203.351 47.24 202.775 45.4053 202.775 43.144C202.775 41.352 203.308 39.7093 204.375 38.216C205.441 36.7227 206.956 35.5493 208.919 34.696C210.881 33.8 213.121 33.352 215.639 33.352C219.521 33.352 222.657 34.3333 225.047 36.296C227.436 38.2587 228.716 40.9467 228.887 44.36H223.063C222.935 42.5253 222.188 41.0533 220.823 39.944C219.5 38.8347 217.708 38.28 215.447 38.28C213.356 38.28 211.692 38.728 210.455 39.624C209.217 40.52 208.599 41.6933 208.599 43.144C208.599 44.296 208.961 45.256 209.687 46.024C210.455 46.7493 211.393 47.3467 212.503 47.816C213.655 48.2427 215.233 48.7333 217.239 49.288C219.756 49.9707 221.804 50.6533 223.383 51.336C224.961 51.976 226.305 52.9573 227.415 54.28C228.567 55.6027 229.164 57.3307 229.207 59.464C229.207 61.384 228.673 63.112 227.607 64.648C226.54 66.184 225.025 67.4 223.063 68.296C221.143 69.1493 218.924 69.576 216.407 69.576ZM254.836 33.288C257.481 33.288 259.871 33.864 262.004 35.016C264.137 36.1253 265.801 37.8107 266.996 40.072C268.233 42.3333 268.852 45.0853 268.852 48.328V69H263.092V49.16C263.092 45.6613 262.217 42.9947 260.468 41.16C258.719 39.2827 256.329 38.344 253.3 38.344C250.228 38.344 247.775 39.304 245.94 41.224C244.148 43.144 243.252 45.9387 243.252 49.608V69H237.428V21.64H243.252V38.92C244.404 37.128 245.983 35.7413 247.988 34.76C250.036 33.7787 252.319 33.288 254.836 33.288ZM309.47 33.928V69H303.646V63.816C302.536 65.608 300.979 67.016 298.974 68.04C297.011 69.0213 294.835 69.512 292.446 69.512C289.715 69.512 287.262 68.9573 285.086 67.848C282.91 66.696 281.182 64.9893 279.902 62.728C278.664 60.4667 278.046 57.7147 278.046 54.472V33.928H283.806V53.704C283.806 57.16 284.68 59.8267 286.43 61.704C288.179 63.5387 290.568 64.456 293.598 64.456C296.712 64.456 299.166 63.496 300.958 61.576C302.75 59.656 303.646 56.8613 303.646 53.192V33.928H309.47ZM325.127 21.64V69H319.303V21.64H325.127ZM367.053 50.12C367.053 51.2293 366.989 52.4027 366.861 53.64H338.829C339.042 57.096 340.216 59.8053 342.349 61.768C344.525 63.688 347.149 64.648 350.221 64.648C352.738 64.648 354.829 64.072 356.493 62.92C358.2 61.7253 359.394 60.1467 360.077 58.184H366.349C365.41 61.5547 363.533 64.3067 360.717 66.44C357.901 68.5307 354.402 69.576 350.221 69.576C346.893 69.576 343.906 68.8293 341.261 67.336C338.658 65.8427 336.61 63.7307 335.117 61C333.624 58.2267 332.877 55.0267 332.877 51.4C332.877 47.7733 333.602 44.5947 335.053 41.864C336.504 39.1333 338.53 37.0427 341.133 35.592C343.778 34.0987 346.808 33.352 350.221 33.352C353.549 33.352 356.493 34.0773 359.053 35.528C361.613 36.9787 363.576 38.984 364.941 41.544C366.349 44.0613 367.053 46.92 367.053 50.12ZM361.037 48.904C361.037 46.6853 360.546 44.7867 359.565 43.208C358.584 41.5867 357.24 40.3707 355.533 39.56C353.869 38.7067 352.013 38.28 349.965 38.28C347.021 38.28 344.504 39.2187 342.413 41.096C340.365 42.9733 339.192 45.576 338.893 48.904H361.037Z" fill="white"/>
<path id="Vector" d="M25.3637 73.9912C42.7692 53.421 46 51.3099 46 43.75C46 33.3946 35.7026 25 23 25C10.2974 25 9.53674e-07 33.3946 9.53674e-07 43.75C9.53674e-07 51.3099 3.23078 53.421 20.6363 73.9912C21.7785 75.3363 24.2216 75.3362 25.3637 73.9912ZM23 51.5625C17.7072 51.5625 13.4167 48.0647 13.4167 43.75C13.4167 39.4353 17.7072 35.9375 23 35.9375C28.2928 35.9375 32.5833 39.4353 32.5833 43.75C32.5833 48.0647 28.2928 51.5625 23 51.5625Z" fill="white"/>
</g>
</svg>
