<?xml version="1.0" standalone="no"?>
<!DOCTYPE svg PUBLIC "-//W3C//DTD SVG 20010904//EN"
 "http://www.w3.org/TR/2001/REC-SVG-20010904/DTD/svg10.dtd">
<svg version="1.0" xmlns="http://www.w3.org/2000/svg"
 width="36.000000pt" height="17.000000pt" viewBox="0 0 36.000000 17.000000"
 preserveAspectRatio="xMidYMid meet">
<metadata>
Created by potrace 1.16, written by Peter Selinger 2001-2019
</metadata>
<g transform="translate(0.000000,17.000000) scale(0.100000,-0.100000)"
fill="#000000" stroke="none">
<path d="M102 88 l2 -63 3 58 4 57 54 0 c53 0 54 0 58 -32 4 -32 4 -32 5 5 l2
37 -65 0 -65 0 2 -62z"/>
<path d="M133 113 c9 -2 25 -2 35 0 9 3 1 5 -18 5 -19 0 -27 -2 -17 -5z"/>
<path d="M212 54 c-11 -12 -10 -17 3 -30 20 -21 26 -15 17 18 -6 22 -9 24 -20
12z"/>
</g>
</svg>
